<svg version="1.2" xmlns="http://www.w3.org/2000/svg" viewBox="0 0 245 39" width="245" height="39"><style>.a{fill:#efefef}.b{fill:#faf7f7}</style><path fill-rule="evenodd" class="a" d="m24.3 1.4c0.8 0.3 1.7 0.5 2.5 1.1 0.8 0.7 1.3 1.9 1.2 3.2-0.1 3.2-0.2 6.5-1.1 9.1-0.3 1-1.3 2.3-2.9 2.3-4.4 0.3-8.3 0.6-12.8 0.5-1.7 1.7-2.6 2.8-3.9 5.4-0.4 0.6-1 0.8-1.5 0.8-0.3 0-0.5-0.1-0.8-0.3-0.2-0.2-0.4-0.5-0.4-1l0.2-5.3q-0.4 0-0.7-0.1-0.3 0-0.7 0-0.3-0.1-0.6-0.2-0.4 0-0.7 0-1-0.2-1.6-0.9c-0.3-0.5-0.4-1.3-0.4-2-0.1-3-0.2-5.7 0.3-8.4 0.1-0.5 0.2-1 0.5-1.5 0.4-0.5 1-0.9 1.6-1 5.1-1.4 10.1-2.5 15-2.5 2.1 0 4.4 0.3 6.8 0.8zm-6.9 0.5c-4.5 0-9.4 1-14.4 2.4-0.4 0-0.7 0.1-1 0.5q-0.3 0.5-0.4 1.1c-0.4 2.5-0.3 5.1-0.2 8 0 0.5 0 0.8 0.2 1.4 0.1 0.1 0.3 0.2 0.7 0.3q0.4 0.1 0.8 0.1 0.4 0.1 0.8 0.1 0.4 0.1 0.8 0.1 0.4 0.1 0.8 0.1c0.3 0 0.6 0.3 0.6 0.6l-0.2 5.9c0 0 0 0 0 0q0.2 0 0.2-0.1c1.5-2.7 2.5-4 4.3-5.9q0.1-0.1 0.2-0.1 0 0 0.1-0.1 0.1 0 0.1 0 0.1 0 0.1 0c4.6 0.1 8.5-0.1 13-0.5 1 0 1.5-0.6 1.9-1.5 0.7-2.3 0.8-5.4 1-8.6 0-0.8 0-1.4-0.8-2.2-0.5-0.4-1.2-0.6-2.1-0.8-1.8-0.5-4.2-0.8-6.5-0.8zm-9 4.9c0.5 0 1 0.4 1.4 0.8 0.6 0.9 0.5 2.2-0.4 2.9-0.4 0.3-0.8 0.6-1.5 0.5-0.5 0-1-0.3-1.3-0.7-0.5-0.7-0.5-1.9 0.2-2.7 0.3-0.4 0.8-0.8 1.6-0.8zm5.9 0.2q0 0 0 0 0 0 0.1 0 0 0 0 0c0.7 0.1 1.1 0.5 1.4 1 0.3 0.6 0.4 1.3 0 1.9-0.9 1.4-2.9 1.4-3.5 0.1-0.4-0.8-0.1-1.5 0.3-2 0.3-0.5 0.8-1 1.5-1q0.1 0 0.2 0zm6.3 0.2q0.3 0 0.5 0.1 0.2 0.2 0.4 0.3 0.2 0.2 0.4 0.4c0.4 0.4 0.4 1.1 0.2 1.7-0.2 0.6-0.7 1.2-1.4 1.4-0.7 0.1-1.4 0-1.8-0.4-0.4-0.3-0.7-0.9-0.8-1.4-0.1-1.1 0.6-1.9 1.4-2.1q0.3-0.1 0.7-0.1 0.2 0 0.4 0.1zm-12.9 1.2c-0.3 0.4-0.2 0.8 0 1.2q0.2 0.2 0.4 0.2c0.1 0 0.3 0 0.5-0.2 0.3-0.3 0.4-0.9 0.1-1.3q-0.2-0.2-0.4-0.2c-0.2 0-0.4 0.2-0.6 0.3zm5.9 0.2c-0.2 0.3-0.2 0.8-0.2 0.8 0.2 0.3 0.9 0.5 1.3-0.1 0.1-0.2 0.1-0.4-0.1-0.7-0.1-0.2-0.3-0.3-0.3-0.3-0.2-0.1-0.4 0-0.7 0.3zm6.3-0.2c-0.4 0-0.6 0.2-0.5 0.8 0 0.2 0.1 0.4 0.3 0.5q0.2 0.2 0.7 0.2c0.3-0.1 0.4-0.3 0.5-0.5 0.1-0.3 0-0.6-0.1-0.7-0.1-0.3-0.5-0.4-0.9-0.3z"/><path fill-rule="evenodd" class="b" d="m36 3.2q0-0.3 0.2-0.5 0.1 0 0.1 0 0-0.1 0.1-0.1 0.1-0.1 0.1-0.1c0.1 0 4.3 0 4.4 0q0.2 0 0.4 0.2 0.1 0 0.2 0.1 0 0 0 0.1 0.1 0.1 0.1 0.1c0 0.1 0 6.8 0 6.9h7.1v-6.7q0-0.3 0.2-0.5 0.2-0.2 0.5-0.2h4.2q0.3 0 0.5 0.2 0.2 0.1 0.2 0.5v19.7q0 0.3-0.2 0.5-0.2 0.1-0.5 0.1h-4.2q-0.3 0-0.5-0.1-0.2-0.2-0.2-0.5v-8.1h-7.1v8.1q0 0.3-0.2 0.4-0.2 0.2-0.5 0.2h-4.3q-0.6 0-0.6-0.5zm39.3 20.1q-0.2 0.2-0.3 0.2-0.1 0-0.2 0 0 0-0.1 0 0 0-0.1 0c0 0-2.2 0-2.2 0q-0.3 0-0.5 0-0.2-0.1-0.3-0.3 0 0-0.1-0.1 0 0 0-0.1 0 0 0 0-0.1-0.1-0.1-0.1 0-0.1-0.1-0.2 0 0 0 0 0-0.1 0-0.1 0-0.1 0-0.2l-0.5-1.8q-0.2 0.5-0.7 1 0 0.2-0.1 0.3-0.2 0.2-0.3 0.3-0.1 0.1-0.3 0.2-0.1 0.2-0.3 0.3-0.6 0.5-1.5 0.8-0.8 0.3-2 0.3-1.6 0-3-0.6-0.3-0.2-0.6-0.3-0.3-0.2-0.6-0.4-0.3-0.3-0.6-0.4-0.2-0.3-0.4-0.6-1-1-1.5-2.5-0.5-1.4-0.5-3v-9.3q0-0.6 0.2-0.8 0.2-0.3 0.8-0.3h3.3q0.6 0 0.8 0.2 0.3 0.2 0.3 0.8v9.2q0 0.6 0.3 1.2 0.2 0.5 0.7 0.9 0.5 0.5 1 0.7 0.6 0.2 1.2 0.2 0.5 0 1.1-0.2 0.1-0.1 0.3-0.2 0.1 0 0.2-0.1 0.2-0.1 0.3-0.2 0.1 0 0.2-0.2 0.5-0.4 0.8-0.9 0.3-0.5 0.3-1.2v-9.2q0-0.2 0.1-0.4 0.1-0.3 0.3-0.4 0.2-0.1 0.3-0.2 0.2 0 0.4 0h3.2q0.6 0 0.9 0.3 0.3 0.3 0.3 0.8v15.8q0 0.3-0.1 0.5-0.1 0.2-0.4 0.4zm16.7-2q-0.4 0.4-0.8 0.8-0.5 0.5-1.1 0.8-0.1 0.2-0.2 0.2-0.2 0.1-0.3 0.2-0.2 0.1-0.4 0.1-0.1 0.1-0.3 0.2-0.2 0-0.3 0.1-0.2 0-0.4 0-0.1 0.1-0.3 0.1-0.2 0-0.3 0-2 0-3.7-0.7-0.3-0.2-0.7-0.4-0.5-0.2-0.8-0.4-0.3-0.3-0.7-0.6-0.3-0.2-0.6-0.6-1.2-1.2-1.9-2.9-0.6-1.7-0.6-3.7 0-2 0.6-3.6 0.7-1.7 1.9-3 0.3-0.3 0.6-0.6 0.4-0.2 0.7-0.5 0.3-0.2 0.8-0.5 0.4-0.2 0.7-0.3 1.7-0.7 3.7-0.7 0.7 0 1.4 0.2 0.1 0 0.3 0.1 0.1 0.1 0.3 0.1 0.1 0.1 0.3 0.2 0.2 0.1 0.3 0.2 0.5 0.3 1 0.8 0.4 0.4 0.8 0.8v-6.4q0-0.5 0.3-0.8 0.3-0.3 0.8-0.3h3.3q0.2 0 0.3 0.1 0.3 0.1 0.4 0.2 0.2 0.1 0.3 0.4 0.2 0.1 0.2 0.4v21.1q0 1.1-1.2 1.1h-2.8q-0.4 0-0.5-0.1 0 0 0 0-0.1 0-0.2-0.1 0 0 0 0 0 0 0-0.1-0.1 0-0.1-0.1-0.1 0-0.1 0 0-0.1 0-0.2 0 0-0.1 0 0-0.1 0-0.1 0-0.1 0-0.2-0.1 0-0.1-0.1-0.1 0-0.1-0.1zm-8.2-6.8q0 0.3 0 0.5 0 0.2 0 0.4 0.1 0.2 0.1 0.5 0.1 0.2 0.2 0.4 0.2 0.8 0.8 1.4 0.1 0.1 0.3 0.3 0.1 0.1 0.3 0.2 0.2 0.1 0.3 0.3 0.2 0 0.4 0.1 0.8 0.4 1.7 0.4 0.9 0 1.8-0.4 0.1 0 0.3-0.1 0.2-0.1 0.4-0.2 0.2-0.1 0.3-0.3 0.2-0.1 0.4-0.3 0.1-0.1 0.2-0.2 0.2-0.2 0.3-0.4 0.1-0.2 0.2-0.3 0.2-0.2 0.2-0.4 0.4-0.8 0.5-1.7v-0.2q0-0.2-0.1-0.4 0-0.3-0.1-0.4 0-0.3 0-0.5-0.1-0.2-0.2-0.4-0.1-0.2-0.2-0.4-0.1-0.2-0.2-0.3-0.1-0.2-0.3-0.4-0.1-0.2-0.2-0.3-0.2-0.2-0.4-0.3-0.1-0.1-0.3-0.3-0.2-0.1-0.4-0.2-0.2-0.1-0.4-0.2-0.2-0.1-0.4-0.2-0.3 0-0.5-0.1-0.2 0-0.4-0.1-0.2 0-0.5 0-0.9 0-1.7 0.4-0.7 0.4-1.3 1-0.1 0.1-0.2 0.3-0.2 0.2-0.3 0.4-0.1 0.1-0.2 0.3 0 0.2-0.1 0.4-0.1 0.2-0.2 0.4 0 0.2-0.1 0.5 0 0.2 0 0.4 0 0.2 0 0.4zm29.5 7.7q-0.4 0.4-1 0.8-0.1 0.1-0.3 0.1-0.1 0.1-0.2 0.2-0.2 0.1-0.3 0.1-0.2 0.1-0.3 0.2-0.2 0-0.4 0.1-0.2 0.1-0.3 0.1-0.2 0-0.4 0-0.2 0-0.4 0-1.9 0-3.5-0.7-0.5-0.1-0.9-0.4-0.3-0.2-0.7-0.4-0.3-0.3-0.6-0.6-0.4-0.2-0.7-0.6-1.1-1.2-1.8-2.9-0.7-1.7-0.7-3.7 0-1.9 0.7-3.6 0.7-1.7 1.8-3 0.3-0.3 0.7-0.6 0.3-0.2 0.6-0.5 0.4-0.2 0.7-0.5 0.4-0.1 0.9-0.3 1.6-0.8 3.5-0.8 0.8 0 1.5 0.3 0.1 0 0.3 0.1 0.2 0.1 0.3 0.1 0.2 0.1 0.3 0.2 0.1 0.1 0.2 0.2 0.6 0.3 1 0.8 0.5 0.4 0.9 0.9v-6.5q0-0.5 0.3-0.8 0.3-0.3 0.8-0.3h3.3q0.2 0 0.4 0 0.2 0.2 0.3 0.3 0.2 0.1 0.4 0.4 0 0.1 0 0.4v21.1q0 1.1-1.1 1.1h-2.8q-0.3 0-0.5-0.1 0 0-0.1 0 0 0 0-0.1 0 0-0.1 0 0 0-0.1-0.1 0 0 0-0.1 0 0-0.1 0 0-0.1 0-0.1-0.1 0-0.1-0.1 0-0.1 0-0.1 0-0.1-0.1-0.2 0 0 0-0.1 0 0 0-0.1l-0.5-1.1q-0.4 0.4-0.9 0.9zm-7.3-7.7q0 0.3 0 0.5 0 0.2 0 0.4 0.1 0.2 0.1 0.5 0.1 0.2 0.2 0.4 0.2 0.8 0.8 1.4 0.1 0.1 0.3 0.3 0.1 0.1 0.3 0.2 0.1 0.1 0.3 0.3 0.2 0 0.4 0.1 0.8 0.4 1.7 0.4 0.9 0 1.7-0.4 0.2 0 0.4-0.1 0.2-0.1 0.4-0.2 0.2-0.1 0.4-0.3 0.1-0.1 0.3-0.3 0.1-0.1 0.2-0.2 0.2-0.2 0.3-0.4 0.1-0.2 0.2-0.3 0.2-0.2 0.2-0.4 0.4-0.8 0.5-1.7v-0.2q0-0.2-0.1-0.4 0-0.3-0.1-0.4 0-0.3 0-0.5-0.1-0.2-0.2-0.4-0.1-0.2-0.2-0.4-0.1-0.2-0.2-0.3-0.1-0.2-0.2-0.4-0.2-0.2-0.4-0.3-0.1-0.2-0.3-0.3-0.2-0.1-0.3-0.3-0.2-0.1-0.4-0.2-0.2-0.1-0.4-0.2-0.2-0.1-0.4-0.2-0.2 0-0.5-0.1-0.2 0-0.4-0.1-0.3 0-0.5 0-0.9 0-1.7 0.4-0.7 0.4-1.3 1-0.1 0.1-0.3 0.3-0.1 0.2-0.2 0.4-0.1 0.1-0.2 0.3-0.1 0.2-0.1 0.4-0.1 0.2-0.1 0.4-0.1 0.2-0.2 0.5 0 0.2 0 0.4 0 0.2 0 0.4zm17.5-13.2q0-0.4 0.3-0.8 0.2-0.3 0.8-0.3h3.5q0.1 0 0.3 0.1 0.1 0 0.1 0 0 0.1 0 0.1 0.1 0 0.1 0 0.1 0.1 0.1 0.1 0.1 0.2 0.2 0.4 0.1 0.1 0.1 0.4v21.1q0 0.6-0.3 0.8-0.3 0.3-0.8 0.3h-3.3q-0.6 0-0.8-0.3-0.3-0.2-0.3-0.8zm24.2 20.1q-0.3 0.3-0.6 0.5-0.3 0.3-0.7 0.5-0.4 0.3-0.7 0.4-0.4 0.2-0.8 0.3-0.4 0.2-0.8 0.4-0.4 0.1-0.8 0.1-0.5 0.2-0.9 0.2-0.4 0-0.9 0-1.9 0-3.7-0.7-0.4-0.1-0.8-0.4-0.4-0.2-0.8-0.4-0.4-0.3-0.7-0.6-0.4-0.2-0.7-0.5-0.4-0.4-0.6-0.7-0.4-0.4-0.6-0.7-0.3-0.4-0.5-0.8-0.3-0.4-0.4-0.8-0.8-1.7-0.8-3.7 0-1.3 0.3-2.4 0.1-0.3 0.1-0.6 0.2-0.2 0.3-0.5 0.1-0.3 0.2-0.6 0.1-0.2 0.3-0.5 0.1-0.2 0.2-0.5 0.2-0.2 0.4-0.5 0.1-0.2 0.3-0.4 0.2-0.2 0.5-0.4 0.2-0.3 0.3-0.5 0.3-0.1 0.5-0.3 0.2-0.2 0.5-0.4 0.2-0.2 0.5-0.3 0.2-0.2 0.5-0.3 0.2-0.1 0.5-0.3 0.3-0.1 0.6-0.2 0.3-0.1 0.6-0.2 0.3-0.1 0.5-0.1 0.3-0.1 0.7-0.1 0.3-0.1 0.6-0.1 0.3 0 0.6 0 1.3 0 2.3 0.3 1.1 0.3 2.1 0.9 1 0.5 1.9 1.3 0.1 0.2 0.3 0.5 0.2 0.1 0.4 0.4 0.2 0.2 0.4 0.4 0.1 0.2 0.2 0.4 0.2 0.3 0.3 0.5 0.2 0.3 0.3 0.5 0.1 0.3 0.2 0.5 0.1 0.3 0.2 0.6 0.3 1 0.3 2.2 0 0.7 0 1.2 0 0.5-0.3 0.7-0.2 0.3-0.6 0.4-0.5 0.1-1.4 0.1h-10.3q0.1 0.9 0.6 1.5 0 0.2 0.2 0.3 0.1 0.1 0.2 0.2 0.1 0.1 0.3 0.3 0.1 0.1 0.3 0.2 0.5 0.3 1.2 0.5 0.2 0.1 0.3 0.1 0.2 0 0.3 0 0.1 0 0.3 0 0.1 0 0.3 0 0.5 0 1.1 0 0.1-0.1 0.2-0.1 0.2-0.1 0.3-0.1 0.1 0 0.3 0 0.1-0.1 0.2-0.1 0.2-0.1 0.3-0.1 0.1-0.1 0.2-0.1 0.1-0.1 0.2-0.1 0.2-0.1 0.3-0.2 0.4-0.2 0.7-0.4 0.2-0.2 0.3-0.3 0.2-0.1 0.4-0.1 0.2 0 0.4 0.2 0.1 0 0.1 0 0 0.1 0.1 0.1 0 0 0.1 0.1 0.1 0.1 0.1 0.1l1.5 1.7q0.2 0.2 0.2 0.4 0.1 0.1 0.1 0.3 0 0.2-0.2 0.4 0 0.1-0.1 0.1 0 0.1 0 0.1-0.1 0-0.2 0.1 0 0.1-0.1 0.1zm-6.9-11.8q-0.5 0-1 0.2-0.2 0.1-0.3 0.1-0.2 0.1-0.3 0.2-0.1 0.1-0.2 0.1-0.1 0.1-0.2 0.2-0.5 0.4-0.8 0.9-0.2 0-0.2 0.2-0.1 0.1-0.2 0.2-0.1 0.1-0.1 0.2-0.1 0.2-0.2 0.3h7.4q-0.1-0.1-0.2-0.3 0-0.1-0.1-0.3-0.1-0.1-0.2-0.2-0.1-0.1-0.2-0.3 0 0-0.2-0.1 0-0.2-0.1-0.3-0.2 0-0.2-0.2-0.2 0-0.3-0.2-0.1 0-0.2-0.1-0.2-0.1-0.3-0.2-0.1 0-0.2-0.1-0.2 0-0.3-0.1-0.6-0.2-1.4-0.2z"/></svg>